<svg width="64" height="64" viewBox="0 0 64 64" fill="none" xmlns="http://www.w3.org/2000/svg">
<g clip-path="url(#clip0_0_2674)">
<path fill-rule="evenodd" clip-rule="evenodd" d="M32 63.999C49.6731 63.999 64 49.6721 64 31.999C64 14.3259 49.6731 -0.000976562 32 -0.000976562C14.3269 -0.000976562 0 14.3259 0 31.999C0 49.6721 14.3269 63.999 32 63.999Z" fill="#43B741"/>
<path d="M42.1315 21.3381C43.0488 20.3062 44.629 20.2132 45.6609 21.1305C46.648 22.0079 46.776 23.4918 45.9824 24.5223L45.8685 24.66L29.8685 42.66C28.9527 43.6903 27.3868 43.7781 26.3626 42.8884L26.2322 42.7668L19.2322 35.7668C18.2559 34.7905 18.2559 33.2076 19.2322 32.2313C20.1661 31.2974 21.655 31.2568 22.6371 32.1095L22.7678 32.2313L27.892 37.3561L42.1315 21.3381Z" fill="white"/>
</g>
<defs>
<clipPath id="clip0_0_2674">
<rect width="64" height="64" fill="white" transform="translate(0 -0.000976562)"/>
</clipPath>
</defs>
</svg>
