<svg width="24" height="24" viewBox="0 0 24 24" fill="none" xmlns="http://www.w3.org/2000/svg">
<path d="M17.0001 10.0606C17.2929 9.76769 17.2929 9.29282 17.0001 8.99993C16.7072 8.70703 16.2323 8.70703 15.9394 8.99993L9.99966 14.9391L7.56066 12.4392C7.26777 12.1463 6.79289 12.1463 6.5 12.4392C6.20711 12.7321 6.20711 13.207 6.5 13.4999L9.49989 16.5C9.69515 16.6953 9.99989 16.9999 10.4999 16.4999L17.0001 10.0606Z" fill="#379535"/>
<path fill-rule="evenodd" clip-rule="evenodd" d="M22 12C22 17.5228 17.5228 22 12 22C6.47715 22 2 17.5228 2 12C2 6.47715 6.47715 2 12 2C17.5228 2 22 6.47715 22 12ZM20.5 12C20.5 16.6944 16.6944 20.5 12 20.5C7.30558 20.5 3.5 16.6944 3.5 12C3.5 7.30558 7.30558 3.5 12 3.5C16.6944 3.5 20.5 7.30558 20.5 12Z" fill="#379535"/>
</svg>
