<svg width="328" height="56" viewBox="0 0 328 56" fill="none" xmlns="http://www.w3.org/2000/svg">
<rect width="328" height="56" rx="8" fill="#E9DCF9"/>
<path d="M31 23C31 23.5523 31.4477 24 32 24C32.5523 24 33 23.5523 33 23C33 22.4477 32.5523 22 32 22C31.4477 22 31 22.4477 31 23Z" fill="#5E1DB1"/>
<path d="M32 34C31.5858 34 31.25 33.6642 31.25 33.25V26.25C31.25 25.8358 31.5858 25.5 32 25.5C32.4142 25.5 32.75 25.8358 32.75 26.25V33.25C32.75 33.6642 32.4142 34 32 34Z" fill="#5E1DB1"/>
<path fill-rule="evenodd" clip-rule="evenodd" d="M42 28C42 33.5228 37.5228 38 32 38C26.4772 38 22 33.5228 22 28C22 22.4772 26.4772 18 32 18C37.5228 18 42 22.4772 42 28ZM40.5 28C40.5 32.6944 36.6944 36.5 32 36.5C27.3056 36.5 23.5 32.6944 23.5 28C23.5 23.3056 27.3056 19.5 32 19.5C36.6944 19.5 40.5 23.3056 40.5 28Z" fill="#5E1DB1"/>
<path d="M66.0078 21.625V33H64.5078V22.8594H58.8984V33H57.3906V21.625H66.0078ZM68.1406 28.8672V28.6875C68.1406 28.0781 68.2292 27.513 68.4062 26.9922C68.5833 26.4661 68.8385 26.0104 69.1719 25.625C69.5052 25.2344 69.9089 24.9323 70.3828 24.7188C70.8568 24.5 71.388 24.3906 71.9766 24.3906C72.5703 24.3906 73.1042 24.5 73.5781 24.7188C74.0573 24.9323 74.4635 25.2344 74.7969 25.625C75.1354 26.0104 75.3932 26.4661 75.5703 26.9922C75.7474 27.513 75.8359 28.0781 75.8359 28.6875V28.8672C75.8359 29.4766 75.7474 30.0417 75.5703 30.5625C75.3932 31.0833 75.1354 31.5391 74.7969 31.9297C74.4635 32.3151 74.0599 32.6172 73.5859 32.8359C73.1172 33.0495 72.5859 33.1562 71.9922 33.1562C71.3984 33.1562 70.8646 33.0495 70.3906 32.8359C69.9167 32.6172 69.5104 32.3151 69.1719 31.9297C68.8385 31.5391 68.5833 31.0833 68.4062 30.5625C68.2292 30.0417 68.1406 29.4766 68.1406 28.8672ZM69.5859 28.6875V28.8672C69.5859 29.2891 69.6354 29.6875 69.7344 30.0625C69.8333 30.4323 69.9818 30.7604 70.1797 31.0469C70.3828 31.3333 70.6354 31.5599 70.9375 31.7266C71.2396 31.888 71.5911 31.9688 71.9922 31.9688C72.388 31.9688 72.7344 31.888 73.0312 31.7266C73.3333 31.5599 73.5833 31.3333 73.7812 31.0469C73.9792 30.7604 74.1276 30.4323 74.2266 30.0625C74.3307 29.6875 74.3828 29.2891 74.3828 28.8672V28.6875C74.3828 28.2708 74.3307 27.8776 74.2266 27.5078C74.1276 27.1328 73.9766 26.8021 73.7734 26.5156C73.5755 26.224 73.3255 25.9948 73.0234 25.8281C72.7266 25.6615 72.3776 25.5781 71.9766 25.5781C71.5807 25.5781 71.2318 25.6615 70.9297 25.8281C70.6328 25.9948 70.3828 26.224 70.1797 26.5156C69.9818 26.8021 69.8333 27.1328 69.7344 27.5078C69.6354 27.8776 69.5859 28.2708 69.5859 28.6875ZM78.6094 24.5469H80.0547L79.9297 27.7109C79.8984 28.513 79.8073 29.2057 79.6562 29.7891C79.5052 30.3724 79.3125 30.8698 79.0781 31.2812C78.8438 31.6875 78.5807 32.0286 78.2891 32.3047C78.0026 32.5807 77.7057 32.8125 77.3984 33H76.6797L76.7188 31.8203L77.0156 31.8125C77.1875 31.6094 77.3542 31.401 77.5156 31.1875C77.6771 30.9688 77.8255 30.7109 77.9609 30.4141C78.0964 30.112 78.2083 29.7448 78.2969 29.3125C78.3906 28.875 78.4505 28.3411 78.4766 27.7109L78.6094 24.5469ZM78.9688 24.5469H84.0547V33H82.6094V25.8828H78.9688V24.5469ZM76.3516 31.8125H85.1406V35.4922H83.6953V33H77.7969V35.4922H76.3438L76.3516 31.8125ZM92.2031 24.5469V25.7422H88.2969V33H86.8516V24.5469H92.2031ZM92.9219 28.8672V28.6875C92.9219 28.0781 93.0104 27.513 93.1875 26.9922C93.3646 26.4661 93.6198 26.0104 93.9531 25.625C94.2865 25.2344 94.6901 24.9323 95.1641 24.7188C95.638 24.5 96.1693 24.3906 96.7578 24.3906C97.3516 24.3906 97.8854 24.5 98.3594 24.7188C98.8385 24.9323 99.2448 25.2344 99.5781 25.625C99.9167 26.0104 100.174 26.4661 100.352 26.9922C100.529 27.513 100.617 28.0781 100.617 28.6875V28.8672C100.617 29.4766 100.529 30.0417 100.352 30.5625C100.174 31.0833 99.9167 31.5391 99.5781 31.9297C99.2448 32.3151 98.8411 32.6172 98.3672 32.8359C97.8984 33.0495 97.3672 33.1562 96.7734 33.1562C96.1797 33.1562 95.6458 33.0495 95.1719 32.8359C94.6979 32.6172 94.2917 32.3151 93.9531 31.9297C93.6198 31.5391 93.3646 31.0833 93.1875 30.5625C93.0104 30.0417 92.9219 29.4766 92.9219 28.8672ZM94.3672 28.6875V28.8672C94.3672 29.2891 94.4167 29.6875 94.5156 30.0625C94.6146 30.4323 94.763 30.7604 94.9609 31.0469C95.1641 31.3333 95.4167 31.5599 95.7188 31.7266C96.0208 31.888 96.3724 31.9688 96.7734 31.9688C97.1693 31.9688 97.5156 31.888 97.8125 31.7266C98.1146 31.5599 98.3646 31.3333 98.5625 31.0469C98.7604 30.7604 98.9089 30.4323 99.0078 30.0625C99.112 29.6875 99.1641 29.2891 99.1641 28.8672V28.6875C99.1641 28.2708 99.112 27.8776 99.0078 27.5078C98.9089 27.1328 98.7578 26.8021 98.5547 26.5156C98.3568 26.224 98.1068 25.9948 97.8047 25.8281C97.5078 25.6615 97.1589 25.5781 96.7578 25.5781C96.362 25.5781 96.013 25.6615 95.7109 25.8281C95.4141 25.9948 95.1641 26.224 94.9609 26.5156C94.763 26.8021 94.6146 27.1328 94.5156 27.5078C94.4167 27.8776 94.3672 28.2708 94.3672 28.6875ZM105.703 24.5469V33H104.25V24.5469H105.703ZM108.539 24.5469V25.7188H101.469V24.5469H108.539ZM109.25 28.8672V28.6875C109.25 28.0781 109.339 27.513 109.516 26.9922C109.693 26.4661 109.948 26.0104 110.281 25.625C110.615 25.2344 111.018 24.9323 111.492 24.7188C111.966 24.5 112.497 24.3906 113.086 24.3906C113.68 24.3906 114.214 24.5 114.688 24.7188C115.167 24.9323 115.573 25.2344 115.906 25.625C116.245 26.0104 116.503 26.4661 116.68 26.9922C116.857 27.513 116.945 28.0781 116.945 28.6875V28.8672C116.945 29.4766 116.857 30.0417 116.68 30.5625C116.503 31.0833 116.245 31.5391 115.906 31.9297C115.573 32.3151 115.169 32.6172 114.695 32.8359C114.227 33.0495 113.695 33.1562 113.102 33.1562C112.508 33.1562 111.974 33.0495 111.5 32.8359C111.026 32.6172 110.62 32.3151 110.281 31.9297C109.948 31.5391 109.693 31.0833 109.516 30.5625C109.339 30.0417 109.25 29.4766 109.25 28.8672ZM110.695 28.6875V28.8672C110.695 29.2891 110.745 29.6875 110.844 30.0625C110.943 30.4323 111.091 30.7604 111.289 31.0469C111.492 31.3333 111.745 31.5599 112.047 31.7266C112.349 31.888 112.701 31.9688 113.102 31.9688C113.497 31.9688 113.844 31.888 114.141 31.7266C114.443 31.5599 114.693 31.3333 114.891 31.0469C115.089 30.7604 115.237 30.4323 115.336 30.0625C115.44 29.6875 115.492 29.2891 115.492 28.8672V28.6875C115.492 28.2708 115.44 27.8776 115.336 27.5078C115.237 27.1328 115.086 26.8021 114.883 26.5156C114.685 26.224 114.435 25.9948 114.133 25.8281C113.836 25.6615 113.487 25.5781 113.086 25.5781C112.69 25.5781 112.341 25.6615 112.039 25.8281C111.742 25.9948 111.492 26.224 111.289 26.5156C111.091 26.8021 110.943 27.1328 110.844 27.5078C110.745 27.8776 110.695 28.2708 110.695 28.6875ZM122.727 29.2812H119.953L119.938 28.125H122.203C122.651 28.125 123.023 28.0807 123.32 27.9922C123.622 27.9036 123.849 27.7708 124 27.5938C124.151 27.4167 124.227 27.1979 124.227 26.9375C124.227 26.7344 124.182 26.5573 124.094 26.4062C124.01 26.25 123.883 26.1224 123.711 26.0234C123.539 25.9193 123.326 25.8438 123.07 25.7969C122.82 25.7448 122.526 25.7188 122.188 25.7188H120.336V33H118.891V24.5469H122.188C122.724 24.5469 123.206 24.5938 123.633 24.6875C124.065 24.7812 124.432 24.9245 124.734 25.1172C125.042 25.3047 125.276 25.5443 125.438 25.8359C125.599 26.1276 125.68 26.4714 125.68 26.8672C125.68 27.1224 125.628 27.3646 125.523 27.5938C125.419 27.8229 125.266 28.026 125.062 28.2031C124.859 28.3802 124.609 28.526 124.312 28.6406C124.016 28.75 123.674 28.8203 123.289 28.8516L122.727 29.2812ZM122.727 33H119.43L120.148 31.8281H122.727C123.128 31.8281 123.461 31.7786 123.727 31.6797C123.992 31.5755 124.19 31.4297 124.32 31.2422C124.456 31.0495 124.523 30.8203 124.523 30.5547C124.523 30.2891 124.456 30.0625 124.32 29.875C124.19 29.6823 123.992 29.5365 123.727 29.4375C123.461 29.3333 123.128 29.2812 122.727 29.2812H120.531L120.547 28.125H123.289L123.812 28.5625C124.276 28.599 124.669 28.7135 124.992 28.9062C125.315 29.099 125.56 29.3438 125.727 29.6406C125.893 29.9323 125.977 30.25 125.977 30.5938C125.977 30.9896 125.901 31.3385 125.75 31.6406C125.604 31.9427 125.391 32.1953 125.109 32.3984C124.828 32.5964 124.487 32.7474 124.086 32.8516C123.685 32.9505 123.232 33 122.727 33ZM129.484 24.5469V33H128.039V24.5469H129.484ZM135.031 24.5469L131.023 29.3906H129L128.781 28.125H130.438L133.273 24.5469H135.031ZM133.477 33L130.367 29.1719L131.297 28.125L135.312 33H133.477ZM141.555 31.5547V27.2031C141.555 26.8698 141.487 26.5807 141.352 26.3359C141.221 26.0859 141.023 25.8932 140.758 25.7578C140.492 25.6224 140.164 25.5547 139.773 25.5547C139.409 25.5547 139.089 25.6172 138.812 25.7422C138.542 25.8672 138.328 26.0312 138.172 26.2344C138.021 26.4375 137.945 26.6562 137.945 26.8906H136.5C136.5 26.5885 136.578 26.2891 136.734 25.9922C136.891 25.6953 137.115 25.4271 137.406 25.1875C137.703 24.9427 138.057 24.75 138.469 24.6094C138.885 24.4635 139.349 24.3906 139.859 24.3906C140.474 24.3906 141.016 24.4948 141.484 24.7031C141.958 24.9115 142.328 25.2266 142.594 25.6484C142.865 26.0651 143 26.5885 143 27.2188V31.1562C143 31.4375 143.023 31.737 143.07 32.0547C143.122 32.3724 143.198 32.6458 143.297 32.875V33H141.789C141.716 32.8333 141.659 32.612 141.617 32.3359C141.576 32.0547 141.555 31.7943 141.555 31.5547ZM141.805 27.875L141.82 28.8906H140.359C139.948 28.8906 139.581 28.9245 139.258 28.9922C138.935 29.0547 138.664 29.151 138.445 29.2812C138.227 29.4115 138.06 29.5755 137.945 29.7734C137.831 29.9661 137.773 30.1927 137.773 30.4531C137.773 30.7188 137.833 30.9609 137.953 31.1797C138.073 31.3984 138.253 31.5729 138.492 31.7031C138.737 31.8281 139.036 31.8906 139.391 31.8906C139.833 31.8906 140.224 31.7969 140.562 31.6094C140.901 31.4219 141.169 31.1927 141.367 30.9219C141.57 30.651 141.68 30.388 141.695 30.1328L142.312 30.8281C142.276 31.0469 142.177 31.2891 142.016 31.5547C141.854 31.8203 141.638 32.0755 141.367 32.3203C141.102 32.5599 140.784 32.7604 140.414 32.9219C140.049 33.0781 139.638 33.1562 139.18 33.1562C138.607 33.1562 138.104 33.0443 137.672 32.8203C137.245 32.5964 136.911 32.2969 136.672 31.9219C136.438 31.5417 136.32 31.1172 136.32 30.6484C136.32 30.1953 136.409 29.7969 136.586 29.4531C136.763 29.1042 137.018 28.8151 137.352 28.5859C137.685 28.3516 138.086 28.1745 138.555 28.0547C139.023 27.9349 139.547 27.875 140.125 27.875H141.805ZM150.766 24.5469H152.211L152.086 27.7109C152.055 28.513 151.964 29.2057 151.812 29.7891C151.661 30.3724 151.469 30.8698 151.234 31.2812C151 31.6875 150.737 32.0286 150.445 32.3047C150.159 32.5807 149.862 32.8125 149.555 33H148.836L148.875 31.8203L149.172 31.8125C149.344 31.6094 149.51 31.401 149.672 31.1875C149.833 30.9688 149.982 30.7109 150.117 30.4141C150.253 30.112 150.365 29.7448 150.453 29.3125C150.547 28.875 150.607 28.3411 150.633 27.7109L150.766 24.5469ZM151.125 24.5469H156.211V33H154.766V25.8828H151.125V24.5469ZM148.508 31.8125H157.297V35.4922H155.852V33H149.953V35.4922H148.5L148.508 31.8125ZM158.516 28.8672V28.6875C158.516 28.0781 158.604 27.513 158.781 26.9922C158.958 26.4661 159.214 26.0104 159.547 25.625C159.88 25.2344 160.284 24.9323 160.758 24.7188C161.232 24.5 161.763 24.3906 162.352 24.3906C162.945 24.3906 163.479 24.5 163.953 24.7188C164.432 24.9323 164.839 25.2344 165.172 25.625C165.51 26.0104 165.768 26.4661 165.945 26.9922C166.122 27.513 166.211 28.0781 166.211 28.6875V28.8672C166.211 29.4766 166.122 30.0417 165.945 30.5625C165.768 31.0833 165.51 31.5391 165.172 31.9297C164.839 32.3151 164.435 32.6172 163.961 32.8359C163.492 33.0495 162.961 33.1562 162.367 33.1562C161.773 33.1562 161.24 33.0495 160.766 32.8359C160.292 32.6172 159.885 32.3151 159.547 31.9297C159.214 31.5391 158.958 31.0833 158.781 30.5625C158.604 30.0417 158.516 29.4766 158.516 28.8672ZM159.961 28.6875V28.8672C159.961 29.2891 160.01 29.6875 160.109 30.0625C160.208 30.4323 160.357 30.7604 160.555 31.0469C160.758 31.3333 161.01 31.5599 161.312 31.7266C161.615 31.888 161.966 31.9688 162.367 31.9688C162.763 31.9688 163.109 31.888 163.406 31.7266C163.708 31.5599 163.958 31.3333 164.156 31.0469C164.354 30.7604 164.503 30.4323 164.602 30.0625C164.706 29.6875 164.758 29.2891 164.758 28.8672V28.6875C164.758 28.2708 164.706 27.8776 164.602 27.5078C164.503 27.1328 164.352 26.8021 164.148 26.5156C163.951 26.224 163.701 25.9948 163.398 25.8281C163.102 25.6615 162.753 25.5781 162.352 25.5781C161.956 25.5781 161.607 25.6615 161.305 25.8281C161.008 25.9948 160.758 26.224 160.555 26.5156C160.357 26.8021 160.208 27.1328 160.109 27.5078C160.01 27.8776 159.961 28.2708 159.961 28.6875ZM169.594 24.5469V33H168.148V24.5469H169.594ZM175.141 24.5469L171.133 29.3906H169.109L168.891 28.125H170.547L173.383 24.5469H175.141ZM173.586 33L170.477 29.1719L171.406 28.125L175.422 33H173.586ZM179.055 32.125L181.406 24.5469H182.953L179.562 34.3047C179.484 34.513 179.38 34.737 179.25 34.9766C179.125 35.2214 178.964 35.4531 178.766 35.6719C178.568 35.8906 178.328 36.0677 178.047 36.2031C177.771 36.3438 177.44 36.4141 177.055 36.4141C176.94 36.4141 176.794 36.3984 176.617 36.3672C176.44 36.3359 176.315 36.3099 176.242 36.2891L176.234 35.1172C176.276 35.1224 176.341 35.1276 176.43 35.1328C176.523 35.1432 176.589 35.1484 176.625 35.1484C176.953 35.1484 177.232 35.1042 177.461 35.0156C177.69 34.9323 177.883 34.7891 178.039 34.5859C178.201 34.388 178.339 34.1146 178.453 33.7656L179.055 32.125ZM177.328 24.5469L179.523 31.1094L179.898 32.6328L178.859 33.1641L175.75 24.5469H177.328ZM189.117 31.0781L191.992 24.5469H193.383L189.617 33H188.617L184.867 24.5469H186.258L189.117 31.0781ZM185.836 24.5469V33H184.391V24.5469H185.836ZM192.352 33V24.5469H193.805V33H192.352ZM199.641 33.1562C199.052 33.1562 198.518 33.0573 198.039 32.8594C197.565 32.6562 197.156 32.3724 196.812 32.0078C196.474 31.6432 196.214 31.2109 196.031 30.7109C195.849 30.2109 195.758 29.6641 195.758 29.0703V28.7422C195.758 28.0547 195.859 27.4427 196.062 26.9062C196.266 26.3646 196.542 25.9062 196.891 25.5312C197.24 25.1562 197.635 24.8724 198.078 24.6797C198.521 24.487 198.979 24.3906 199.453 24.3906C200.057 24.3906 200.578 24.4948 201.016 24.7031C201.458 24.9115 201.82 25.2031 202.102 25.5781C202.383 25.9479 202.591 26.3854 202.727 26.8906C202.862 27.3906 202.93 27.9375 202.93 28.5312V29.1797H196.617V28H201.484V27.8906C201.464 27.5156 201.385 27.151 201.25 26.7969C201.12 26.4427 200.911 26.151 200.625 25.9219C200.339 25.6927 199.948 25.5781 199.453 25.5781C199.125 25.5781 198.823 25.6484 198.547 25.7891C198.271 25.9245 198.034 26.1276 197.836 26.3984C197.638 26.6693 197.484 27 197.375 27.3906C197.266 27.7812 197.211 28.2318 197.211 28.7422V29.0703C197.211 29.4714 197.266 29.849 197.375 30.2031C197.49 30.5521 197.654 30.8594 197.867 31.125C198.086 31.3906 198.349 31.599 198.656 31.75C198.969 31.901 199.323 31.9766 199.719 31.9766C200.229 31.9766 200.661 31.8724 201.016 31.6641C201.37 31.4557 201.68 31.1771 201.945 30.8281L202.82 31.5234C202.638 31.7995 202.406 32.0625 202.125 32.3125C201.844 32.5625 201.497 32.7656 201.086 32.9219C200.68 33.0781 200.198 33.1562 199.641 33.1562ZM210.352 28.2109V29.3828H205.883V28.2109H210.352ZM206.188 24.5469V33H204.742V24.5469H206.188ZM211.523 24.5469V33H210.07V24.5469H211.523ZM217.297 24.5469V33H215.844V24.5469H217.297ZM220.133 24.5469V25.7188H213.062V24.5469H220.133ZM220.844 28.8672V28.6875C220.844 28.0781 220.932 27.513 221.109 26.9922C221.286 26.4661 221.542 26.0104 221.875 25.625C222.208 25.2344 222.612 24.9323 223.086 24.7188C223.56 24.5 224.091 24.3906 224.68 24.3906C225.273 24.3906 225.807 24.5 226.281 24.7188C226.76 24.9323 227.167 25.2344 227.5 25.625C227.839 26.0104 228.096 26.4661 228.273 26.9922C228.451 27.513 228.539 28.0781 228.539 28.6875V28.8672C228.539 29.4766 228.451 30.0417 228.273 30.5625C228.096 31.0833 227.839 31.5391 227.5 31.9297C227.167 32.3151 226.763 32.6172 226.289 32.8359C225.82 33.0495 225.289 33.1562 224.695 33.1562C224.102 33.1562 223.568 33.0495 223.094 32.8359C222.62 32.6172 222.214 32.3151 221.875 31.9297C221.542 31.5391 221.286 31.0833 221.109 30.5625C220.932 30.0417 220.844 29.4766 220.844 28.8672ZM222.289 28.6875V28.8672C222.289 29.2891 222.339 29.6875 222.438 30.0625C222.536 30.4323 222.685 30.7604 222.883 31.0469C223.086 31.3333 223.339 31.5599 223.641 31.7266C223.943 31.888 224.294 31.9688 224.695 31.9688C225.091 31.9688 225.438 31.888 225.734 31.7266C226.036 31.5599 226.286 31.3333 226.484 31.0469C226.682 30.7604 226.831 30.4323 226.93 30.0625C227.034 29.6875 227.086 29.2891 227.086 28.8672V28.6875C227.086 28.2708 227.034 27.8776 226.93 27.5078C226.831 27.1328 226.68 26.8021 226.477 26.5156C226.279 26.224 226.029 25.9948 225.727 25.8281C225.43 25.6615 225.081 25.5781 224.68 25.5781C224.284 25.5781 223.935 25.6615 223.633 25.8281C223.336 25.9948 223.086 26.224 222.883 26.5156C222.685 26.8021 222.536 27.1328 222.438 27.5078C222.339 27.8776 222.289 28.2708 222.289 28.6875ZM234.32 29.2812H231.547L231.531 28.125H233.797C234.245 28.125 234.617 28.0807 234.914 27.9922C235.216 27.9036 235.443 27.7708 235.594 27.5938C235.745 27.4167 235.82 27.1979 235.82 26.9375C235.82 26.7344 235.776 26.5573 235.688 26.4062C235.604 26.25 235.477 26.1224 235.305 26.0234C235.133 25.9193 234.919 25.8438 234.664 25.7969C234.414 25.7448 234.12 25.7188 233.781 25.7188H231.93V33H230.484V24.5469H233.781C234.318 24.5469 234.799 24.5938 235.227 24.6875C235.659 24.7812 236.026 24.9245 236.328 25.1172C236.635 25.3047 236.87 25.5443 237.031 25.8359C237.193 26.1276 237.273 26.4714 237.273 26.8672C237.273 27.1224 237.221 27.3646 237.117 27.5938C237.013 27.8229 236.859 28.026 236.656 28.2031C236.453 28.3802 236.203 28.526 235.906 28.6406C235.609 28.75 235.268 28.8203 234.883 28.8516L234.32 29.2812ZM234.32 33H231.023L231.742 31.8281H234.32C234.721 31.8281 235.055 31.7786 235.32 31.6797C235.586 31.5755 235.784 31.4297 235.914 31.2422C236.049 31.0495 236.117 30.8203 236.117 30.5547C236.117 30.2891 236.049 30.0625 235.914 29.875C235.784 29.6823 235.586 29.5365 235.32 29.4375C235.055 29.3333 234.721 29.2812 234.32 29.2812H232.125L232.141 28.125H234.883L235.406 28.5625C235.87 28.599 236.263 28.7135 236.586 28.9062C236.909 29.099 237.154 29.3438 237.32 29.6406C237.487 29.9323 237.57 30.25 237.57 30.5938C237.57 30.9896 237.495 31.3385 237.344 31.6406C237.198 31.9427 236.984 32.1953 236.703 32.3984C236.422 32.5964 236.081 32.7474 235.68 32.8516C235.279 32.9505 234.826 33 234.32 33ZM247.445 29.2812H244.672L244.656 28.125H246.922C247.37 28.125 247.742 28.0807 248.039 27.9922C248.341 27.9036 248.568 27.7708 248.719 27.5938C248.87 27.4167 248.945 27.1979 248.945 26.9375C248.945 26.7344 248.901 26.5573 248.812 26.4062C248.729 26.25 248.602 26.1224 248.43 26.0234C248.258 25.9193 248.044 25.8438 247.789 25.7969C247.539 25.7448 247.245 25.7188 246.906 25.7188H245.055V33H243.609V24.5469H246.906C247.443 24.5469 247.924 24.5938 248.352 24.6875C248.784 24.7812 249.151 24.9245 249.453 25.1172C249.76 25.3047 249.995 25.5443 250.156 25.8359C250.318 26.1276 250.398 26.4714 250.398 26.8672C250.398 27.1224 250.346 27.3646 250.242 27.5938C250.138 27.8229 249.984 28.026 249.781 28.2031C249.578 28.3802 249.328 28.526 249.031 28.6406C248.734 28.75 248.393 28.8203 248.008 28.8516L247.445 29.2812ZM247.445 33H244.148L244.867 31.8281H247.445C247.846 31.8281 248.18 31.7786 248.445 31.6797C248.711 31.5755 248.909 31.4297 249.039 31.2422C249.174 31.0495 249.242 30.8203 249.242 30.5547C249.242 30.2891 249.174 30.0625 249.039 29.875C248.909 29.6823 248.711 29.5365 248.445 29.4375C248.18 29.3333 247.846 29.2812 247.445 29.2812H245.25L245.266 28.125H248.008L248.531 28.5625C248.995 28.599 249.388 28.7135 249.711 28.9062C250.034 29.099 250.279 29.3438 250.445 29.6406C250.612 29.9323 250.695 30.25 250.695 30.5938C250.695 30.9896 250.62 31.3385 250.469 31.6406C250.323 31.9427 250.109 32.1953 249.828 32.3984C249.547 32.5964 249.206 32.7474 248.805 32.8516C248.404 32.9505 247.951 33 247.445 33ZM264.25 26.5156V27.7422H258.094V26.5156H264.25ZM258.328 21.625V33H256.82V21.625H258.328ZM265.562 21.625V33H264.062V21.625H265.562ZM268.242 21.625H272.008C272.862 21.625 273.583 21.7552 274.172 22.0156C274.766 22.276 275.216 22.6615 275.523 23.1719C275.836 23.6771 275.992 24.2995 275.992 25.0391C275.992 25.5599 275.885 26.0365 275.672 26.4688C275.464 26.8958 275.161 27.2604 274.766 27.5625C274.375 27.8594 273.906 28.0807 273.359 28.2266L272.938 28.3906H269.398L269.383 27.1641H272.055C272.596 27.1641 273.047 27.0703 273.406 26.8828C273.766 26.6901 274.036 26.4323 274.219 26.1094C274.401 25.7865 274.492 25.4297 274.492 25.0391C274.492 24.6016 274.406 24.2188 274.234 23.8906C274.062 23.5625 273.792 23.3099 273.422 23.1328C273.057 22.9505 272.586 22.8594 272.008 22.8594H269.75V33H268.242V21.625ZM274.891 33L272.125 27.8438L273.695 27.8359L276.5 32.9062V33H274.891Z" fill="#080808"/>
</svg>
