<svg width="24" height="24" viewBox="0 0 24 24" fill="none" xmlns="http://www.w3.org/2000/svg">
<path fill-rule="evenodd" clip-rule="evenodd" d="M12.4471 4.74856L19.4611 18.7764C19.6273 19.1089 19.3855 19.5 19.0138 19.5H4.98598C4.61429 19.5 4.37254 19.1089 4.53877 18.7764L11.5527 4.74856C11.737 4.38003 12.2629 4.38004 12.4471 4.74856ZM10.2111 4.07774C10.9481 2.60365 13.0517 2.60364 13.7888 4.07774L20.8027 18.1056C21.4676 19.4354 20.5006 21 19.0138 21H4.98598C3.49921 21 2.53222 19.4354 3.19712 18.1056L10.2111 4.07774ZM11.25 14.25C11.25 14.6642 11.5858 15 12 15C12.4142 15 12.75 14.6642 12.75 14.25L12.9655 9.99941C12.9844 9.45311 12.5466 9 12 9C11.4534 9 11.0156 9.45311 11.0345 9.99941L11.25 14.25ZM12 18C11.4477 18 11 17.5523 11 17C11 16.4477 11.4477 16 12 16C12.5523 16 13 16.4477 13 17C13 17.5523 12.5523 18 12 18Z" fill="#C2420B"/>
</svg>
