<svg width="24" height="24" viewBox="0 0 24 24" fill="none" xmlns="http://www.w3.org/2000/svg">
<path d="M11 7C11 7.55229 11.4477 8 12 8C12.5523 8 13 7.55229 13 7C13 6.44772 12.5523 6 12 6C11.4477 6 11 6.44772 11 7Z" fill="#5E1DB1"/>
<path d="M12 18C11.5858 18 11.25 17.6642 11.25 17.25V10.25C11.25 9.83579 11.5858 9.5 12 9.5C12.4142 9.5 12.75 9.83579 12.75 10.25V17.25C12.75 17.6642 12.4142 18 12 18Z" fill="#5E1DB1"/>
<path fill-rule="evenodd" clip-rule="evenodd" d="M22 12C22 17.5228 17.5228 22 12 22C6.47715 22 2 17.5228 2 12C2 6.47715 6.47715 2 12 2C17.5228 2 22 6.47715 22 12ZM20.5 12C20.5 16.6944 16.6944 20.5 12 20.5C7.30558 20.5 3.5 16.6944 3.5 12C3.5 7.30558 7.30558 3.5 12 3.5C16.6944 3.5 20.5 7.30558 20.5 12Z" fill="#5E1DB1"/>
</svg>
